<?xml version="1.0" encoding="UTF-8"?>
<svg width="422px" height="68px" viewBox="0 0 422 68" version="1.1" xmlns="http://www.w3.org/2000/svg" xmlns:xlink="http://www.w3.org/1999/xlink">
    <title>QUIETSPACE</title>
    <g id="Page-1-Copy" stroke="none" stroke-width="1" fill="none" fill-rule="evenodd">
        <g id="Artboard-Copy" transform="translate(-1859.000000, -952.000000)" fill="#FFFFFF" fill-rule="nonzero">
            <g id="QUIETSPACE" transform="translate(1859.041872, 952.101104)">
                <path d="M34.202512,63.359968 C39.544336,65.066384 42.586208,63.285776 44.737776,61.653552 L45.25712,62.098704 L41.992672,64.54704 C36.35408,68.479216 33.75736,67.737296 22.035024,62.395472 L16.989968,60.09552 C13.131984,58.685872 6.67728,60.911632 4.82248,62.098704 L4.228944,61.505168 C12.538448,54.827888 24.48336,59.798752 24.48336,59.798752 L34.202512,63.359968 Z M22.62856,52.898896 C31.383216,52.898896 40.8056,47.557072 40.8056,27.154272 C40.8056,6.825664 31.383216,0.667728 22.62856,0.667728 C13.799712,0.667728 4.303136,6.825664 4.303136,27.154272 C4.303136,47.557072 13.799712,52.898896 22.62856,52.898896 Z M22.62856,0 C38.9508,0 45.25712,12.464256 45.25712,27.154272 C45.25712,41.91848 38.9508,53.566624 22.62856,53.566624 C6.30632,53.566624 0,41.91848 0,27.154272 C0,12.464256 6.30632,0 22.62856,0 Z" id="Shape"></path>
                <path d="M98.878928,35.686352 L98.878928,17.360928 C98.878928,3.33864 98.58216,1.335456 106.817472,1.335456 L106.817472,0.667728 L90.717808,0.667728 L90.717808,1.335456 C97.766048,1.335456 98.2112,3.33864 98.2112,17.360928 L98.2112,35.686352 C98.2112,45.405504 93.166144,51.340864 83.669568,51.340864 C74.618144,51.340864 69.053744,45.99904 69.053744,36.279888 L69.053744,7.864352 C69.053744,1.48384 70.76016,1.335456 73.950416,1.335456 L73.950416,0.667728 L60.595856,0.667728 L60.595856,1.335456 C63.860304,1.335456 65.121568,2.151568 65.121568,7.641776 L65.121568,35.537968 C65.121568,47.631264 72.021424,53.566624 81.14704,53.566624 C92.943568,53.566624 98.95312,46.37 98.878928,35.686352 Z" id="Path"></path>
                <path d="M117.527168,0.667728 L117.527168,1.261264 C120.791616,1.261264 121.607728,1.780608 121.607728,6.380512 L121.607728,45.99904 C121.607728,51.044096 120.717424,52.231168 117.527168,52.231168 L117.527168,52.898896 L130.139808,52.898896 L130.139808,52.231168 C127.023744,52.231168 126.059248,51.044096 126.059248,45.99904 L126.059248,6.380512 C126.059248,1.780608 126.949552,1.261264 130.139808,1.261264 L130.139808,0.667728 L117.527168,0.667728 Z" id="Path"></path>
                <path d="M175.016512,37.83792 C174.274592,52.602128 164.407056,52.082784 154.465328,52.082784 L150.681536,52.082784 L150.681536,26.931696 L156.616896,26.931696 C159.436192,26.931696 165.816704,27.005888 166.03928,34.350896 L166.855392,34.350896 L166.855392,18.770576 L166.03928,18.770576 C165.816704,26.041392 159.584576,26.115584 156.616896,26.115584 L150.681536,26.115584 L150.681536,1.48384 L155.429824,1.48384 C164.481248,1.48384 173.681056,1.632224 174.052016,13.651328 L174.868128,13.651328 L174.868128,0.667728 L140.814,0.667728 L140.814,1.48384 C144.078448,1.48384 144.597792,2.819296 144.597792,7.4192 L144.597792,44.960352 C144.597792,50.005408 143.930064,52.082784 140.814,52.082784 L140.814,52.898896 L175.832624,52.898896 L175.832624,37.83792 L175.016512,37.83792 Z" id="Path"></path>
                <path d="M182.584192,0.667728 L182.584192,13.72552 L183.548688,13.72552 C183.845456,1.780608 194.900064,1.632224 197.200016,1.632224 L201.577344,1.632224 L201.577344,45.702272 C201.577344,50.598944 199.351584,51.9344 196.23552,51.9344 L196.23552,52.898896 L214.338368,52.898896 L214.338368,51.9344 C211.222304,51.9344 208.922352,50.598944 208.922352,45.702272 L208.922352,1.632224 L213.29968,1.632224 C214.338368,1.632224 226.728432,1.780608 227.0252,13.72552 L227.989696,13.72552 L227.989696,0.667728 L182.584192,0.667728 Z" id="Path"></path>
                <path d="M267.792208,47.48288 C272.540496,40.360448 269.647008,32.27352 259.779472,25.744624 L247.908752,17.954464 C237.521872,11.202992 242.047584,1.11288 250.06032,1.11288 C262.153616,1.11288 265.863216,10.38688 266.901904,16.025472 L268.014784,16.025472 L268.014784,3.561216 C268.014784,3.561216 261.782656,0 250.06032,0 C239.005712,0 235.370304,5.712784 235.370304,5.712784 C229.434944,14.170672 234.776768,21.218912 243.605616,26.857504 L255.402144,34.425088 C264.305184,40.8056 262.302,52.453744 252.731232,52.453744 C239.821824,52.453744 236.038032,41.695904 234.85096,34.944432 L233.73808,34.944432 L233.73808,49.189296 C233.73808,49.189296 239.525056,53.566624 252.731232,53.566624 C264.453568,53.566624 267.792208,47.48288 267.792208,47.48288 Z" id="Path"></path>
                <path d="M282.753136,29.454224 L282.753136,1.780608 L284.75632,1.780608 C292.769056,1.780608 299.520528,2.003184 299.520528,15.654512 C299.520528,29.083264 292.91744,29.454224 284.75632,29.454224 L282.753136,29.454224 Z M282.753136,30.567104 L284.75632,30.567104 C299.520528,30.567104 309.684832,28.415536 309.684832,15.654512 C309.684832,2.893488 299.520528,0.667728 284.75632,0.667728 L268.656656,0.667728 L268.656656,1.780608 C272.14368,1.780608 273.701712,4.674096 273.701712,9.496576 L273.701712,42.808784 C273.701712,48.892528 272.217872,51.786016 268.80504,51.786016 L268.80504,52.898896 L290.840064,52.898896 L290.840064,51.786016 C286.907888,51.786016 282.753136,51.415056 282.753136,42.734592 L282.753136,30.567104 Z" id="Shape"></path>
                <path d="M307.552464,36.576656 L316.084544,13.428752 L325.284352,36.576656 L307.552464,36.576656 Z M345.464576,51.786016 C343.461392,51.637632 341.754976,52.008592 339.30664,46.073232 C339.30664,46.073232 334.335776,33.3864 320.684448,0.667728 L319.719952,0.667728 L307.03312,34.49928 C300.207456,51.786016 298.352656,51.711824 295.978512,51.786016 L295.978512,52.898896 L313.413632,52.898896 L313.413632,51.786016 C302.359024,52.231168 306.2912,40.657216 307.329888,37.689536 L325.729504,37.689536 L328.103648,43.624896 C328.993952,45.702272 331.293904,51.786016 326.397232,51.786016 L326.397232,52.898896 L345.464576,52.898896 L345.464576,51.786016 Z" id="Shape"></path>
                <path d="M375.644416,37.392768 C374.234768,47.11192 366.592992,52.453744 359.173792,52.453744 C351.383632,52.453744 344.854736,48.373184 344.854736,26.783312 C344.854736,5.416016 351.161056,1.11288 359.173792,1.11288 C366.370416,1.11288 372.528352,4.970864 375.644416,16.099664 L376.757296,16.099664 L377.721792,4.525712 C373.047696,0.74192 366.815568,0 359.173792,0 C343.51928,0 333.429168,11.054608 333.429168,26.783312 C333.429168,42.437824 343.51928,53.566624 359.173792,53.566624 C367.112336,53.566624 372.231584,52.602128 377.721792,48.96672 L376.757296,37.392768 L375.644416,37.392768 Z" id="Path"></path>
                <path d="M420.201584,36.72504 C417.08552,51.637632 397.42464,51.637632 397.42464,51.637632 L394.753728,51.637632 L394.753728,27.154272 L397.42464,27.154272 C397.42464,27.154272 408.701824,27.154272 409.443744,34.87024 L410.705008,34.87024 L410.705008,18.17704 L409.443744,18.17704 C408.701824,25.893008 397.42464,25.893008 397.42464,25.893008 L394.753728,25.893008 L394.753728,1.928992 L397.42464,1.928992 C397.42464,1.928992 417.530672,1.928992 419.237088,14.764208 L420.498352,14.764208 L420.498352,0.667728 L379.692752,0.667728 L379.692752,1.928992 C382.9572,1.928992 383.995888,6.30632 383.995888,10.906224 L383.995888,42.734592 C383.995888,47.779648 382.808816,51.637632 379.692752,51.637632 L379.692752,52.898896 L421.462848,52.898896 L421.462848,36.72504 L420.201584,36.72504 Z" id="Path"></path>
            </g>
        </g>
    </g>
</svg>