<?xml version="1.0" encoding="UTF-8"?>
<svg width="80px" height="87px" viewBox="0 0 80 87" version="1.1" xmlns="http://www.w3.org/2000/svg" xmlns:xlink="http://www.w3.org/1999/xlink">
    <title>It’s about the pract</title>
    <g id="Page-1-Copy" stroke="none" stroke-width="1" fill="none" fill-rule="evenodd">
        <g id="Artboard-Copy" transform="translate(-1859.000000, -853.000000)" fill="#FFFFFF" fill-rule="nonzero">
            <g id="It’s-about-the-pract" transform="translate(1859.360264, 853.080832)">
                <path d="M0.74172,1.13686838e-13 L0.74172,0.275496 C1.674168,0.275496 2.22516,0.63576 2.22516,1.949664 L2.22516,12.651624 C2.22516,14.09268 1.652976,14.643672 0.74172,14.643672 L0.74172,14.919168 L5.891376,14.919168 L5.891376,14.643672 C5.001312,14.643672 4.407936,14.09268 4.407936,12.651624 L4.407936,1.949664 C4.407936,0.63576 4.98012,0.275496 5.891376,0.275496 L5.891376,1.13686838e-13 L0.74172,1.13686838e-13 Z" id="Path"></path>
                <path d="M14.3196121,13.181424 C14.1500761,13.626456 13.6414681,14.071488 13.0269001,14.071488 C12.0308761,14.071488 11.4163081,13.499304 11.4163081,11.803944 L11.4163081,5.40396 L13.8745801,5.40396 L13.9381561,5.128464 L11.4163081,5.128464 L11.4163081,1.822512 L9.57260413,2.1192 L9.57260413,5.128464 L8.44942813,5.128464 L8.49181213,5.40396 L9.57260413,5.40396 L9.57260413,11.86752 C9.57260413,14.431752 10.5050521,15.109896 12.0520681,15.109896 C13.2812041,15.109896 14.2348441,14.219832 14.5315321,13.287384 L14.3196121,13.181424 Z" id="Path"></path>
                <path d="M17.5346163,5.064888 C18.4670643,4.577472 18.8061363,4.02648 19.0816323,3.60264 C19.6538163,2.670192 20.0140803,1.16556 19.2723603,0.42384 C18.7849443,-0.063576 18.0008403,-0.063576 17.5134243,0.42384 C17.0260083,0.911256 17.0472003,1.69536 17.5346163,2.182776 C17.7889203,2.415888 18.0644163,2.500656 18.3611043,2.54304 C18.7001763,2.585424 18.8273283,3.878136 17.4074643,4.895352 L17.5346163,5.064888 Z" id="Path"></path>
                <path d="M27.7641724,14.071488 C28.7813884,12.60924 28.1668204,10.892688 26.2595404,9.705936 L24.1191484,8.37084 C22.2754444,7.20528 22.4237884,5.213232 24.4370284,5.213232 C26.8953004,5.213232 27.4886764,6.950976 27.6370204,8.201304 L27.8913244,8.201304 L27.8913244,5.61588 C27.8913244,5.61588 26.8741084,4.937736 24.4370284,4.937736 C22.2754444,4.937736 21.6396844,6.14568 21.6396844,6.14568 C20.7920044,7.607928 21.2582284,8.879448 23.2926604,10.235736 L25.4330524,11.528448 C27.0436444,12.588048 27.3191404,14.8344 25.0727884,14.8344 C22.3178284,14.8344 21.7880284,12.778776 21.6396844,11.380104 L21.3641884,11.380104 L21.3641884,14.262216 C21.3641884,14.262216 22.5085564,15.109896 25.0727884,15.109896 C27.0436444,15.109896 27.7641724,14.071488 27.7641724,14.071488 Z" id="Path"></path>
                <path d="M5.93376,31.684744 C5.93376,31.684744 5.93376,34.82116 5.93376,34.842352 C5.72184,35.35096 5.19204,36.156256 4.068864,36.156256 C2.776152,36.156256 2.394696,35.096656 2.394696,34.482088 C2.394696,33.210568 3.475488,32.27812 5.93376,31.684744 Z M8.79468,36.113872 C7.819848,36.113872 7.84104,34.778776 7.84104,34.778776 L7.84104,31.176136 C7.84104,28.654288 7.20528,26.937736 4.895352,26.937736 C4.895352,26.937736 3.856944,26.87416 2.945688,27.340384 C1.80132,27.954952 1.441056,28.590712 1.292712,28.908592 C1.123176,29.20528 1.16556,29.62912 1.398672,29.947 C1.716552,30.392032 2.33112,30.4768 2.75496,30.137728 C3.199992,29.819848 3.28476,29.184088 2.96688,28.760248 C2.797344,28.527136 2.564232,28.421176 2.309928,28.378792 C2.182776,28.3576 2.309928,27.954952 3.136416,27.552304 C4.831776,26.7682 5.93376,27.997336 5.93376,30.180112 L5.93376,31.409248 C2.309928,32.341696 0.508608,32.80792 0.508608,34.92712 C0.508608,37.1099797 2.924496,37.1099797 2.924496,37.1099797 C4.407936,37.1099797 5.637072,36.346984 5.93376,35.329768 C6.060912,37.15228 7.73508,37.1099797 7.73508,37.1099797 C8.837064,37.1099797 9.557592,36.3046 9.684744,35.66884 L9.43044,35.56288 C9.282096,36.113872 8.79468,36.113872 8.79468,36.113872 Z" id="Shape"></path>
                <path d="M19.6811881,32.405272 C19.6811881,35.7748 18.3037081,36.8344 16.8838441,36.8344 C15.4639801,36.8344 14.2984201,35.795992 14.2984201,33.592024 L14.2984201,30.392032 C14.2984201,28.760248 15.1884841,27.637072 16.7355001,27.637072 C18.5792041,27.637072 19.6811881,29.078128 19.6811881,32.405272 Z M21.9063481,32.108584 C21.9063481,29.20528 20.2745641,26.937736 17.4560281,26.937736 C16.3752361,26.937736 14.9341801,27.488728 14.2984201,28.633096 L14.2984201,21.279472 L11.3739241,21.851656 L11.3739241,22.127152 C12.2639881,22.296688 12.4547161,22.593376 12.4547161,23.313904 L12.4547161,36.813208 C12.4547161,37.15228 13.4083561,36.643672 13.9805401,36.050296 C14.6798761,36.707248 15.6970921,37.109896 16.9474201,37.109896 C19.7659561,37.109896 21.9063481,35.372152 21.9063481,32.108584 Z" id="Shape"></path>
                <path d="M32.3266323,32.023816 C32.3266323,35.859568 31.2458403,36.8344 29.6352483,36.8344 C28.0034643,36.8344 26.9014803,35.859568 26.9014803,32.023816 C26.9014803,28.188064 28.0034643,27.213232 29.6352483,27.213232 C31.2458403,27.213232 32.3266323,28.188064 32.3266323,32.023816 Z M34.5094083,32.023816 C34.5094083,29.226472 32.8776243,26.937736 29.6352483,26.937736 C26.4140643,26.937736 24.7398963,29.226472 24.7398963,32.023816 C24.7398963,34.799968 26.4140643,37.109896 29.6352483,37.109896 C32.8776243,37.109896 34.5094083,34.799968 34.5094083,32.023816 Z" id="Shape"></path>
                <path d="M47.2184284,36.41056 C46.3283644,36.3046 46.1376364,36.177448 46.1376364,35.160232 L46.1376364,26.937736 L43.2979084,27.340384 L43.2979084,27.594688 C44.3363164,27.658264 44.2939324,27.806608 44.2939324,29.09932 L44.2939324,34.439704 C43.9124764,35.329768 43.1495644,36.071488 42.0899644,36.071488 C40.8608284,36.071488 39.9071884,35.45692 39.9071884,33.846328 L39.9071884,26.937736 L36.8979244,27.340384 L36.8979244,27.594688 C38.1058684,27.679456 38.0846764,27.785416 38.0846764,29.141704 L38.0846764,33.909904 C38.0846764,36.558904 39.5893084,37.109896 41.1151324,37.109896 C42.5349964,37.109896 43.9124764,36.09268 44.2939324,34.969504 L44.2939324,36.770824 C44.2939324,36.770824 44.2939324,37.194664 44.8025404,37.088704 L47.2184284,36.686056 L47.2184284,36.41056 Z" id="Path"></path>
                <path d="M54.9897125,35.181424 C54.8201765,35.626456 54.3115685,36.071488 53.6970005,36.071488 C52.7009765,36.071488 52.0864085,35.499304 52.0864085,33.803944 L52.0864085,27.40396 L54.5446805,27.40396 L54.6082565,27.128464 L52.0864085,27.128464 L52.0864085,23.822512 L50.2427045,24.1192 L50.2427045,27.128464 L49.1195285,27.128464 L49.1619125,27.40396 L50.2427045,27.40396 L50.2427045,33.86752 C50.2427045,36.431752 51.1751525,37.109896 52.7221685,37.109896 C53.9513045,37.109896 54.9049445,36.219832 55.2016325,35.287384 L54.9897125,35.181424 Z" id="Path"></path>
                <path d="M5.870184,57.181424 C5.700648,57.626456 5.19204,58.071488 4.577472,58.071488 C3.581448,58.071488 2.96688,57.499304 2.96688,55.803944 L2.96688,49.40396 L5.425152,49.40396 L5.488728,49.128464 L2.96688,49.128464 L2.96688,45.822512 L1.123176,46.1192 L1.123176,49.128464 L0,49.128464 L0.042384,49.40396 L1.123176,49.40396 L1.123176,55.86752 C1.123176,58.431752 2.055624,59.109896 3.60264,59.109896 C4.831776,59.109896 5.785416,58.219832 6.082104,57.287384 L5.870184,57.181424 Z" id="Path"></path>
                <path d="M17.8374841,58.664864 C17.0957641,58.474136 16.9686121,58.113872 16.9686121,56.948312 L16.9686121,52.349648 C16.9686121,49.806608 15.7818601,48.937736 14.0441161,48.937736 C12.6666361,48.937736 11.0772361,50.124488 10.7593561,51.332432 L10.7593561,43.279472 L7.83486013,43.915232 L7.83486013,44.190728 C8.70373213,44.339072 8.89446013,44.593376 8.89446013,45.335096 L8.89446013,56.948312 C8.89446013,58.029104 8.85207613,58.41056 8.04678013,58.643672 L8.04678013,58.919168 L11.6282281,58.919168 L11.6282281,58.643672 C10.8653161,58.452944 10.7593561,58.113872 10.7593561,56.948312 L10.7593561,51.713888 C11.0984281,50.99336 11.8825321,50.018528 12.9421321,50.018528 C14.4255721,50.018528 15.1461001,50.908592 15.1461001,52.434416 L15.1461001,56.948312 C15.1461001,58.029104 15.1037161,58.431752 14.2984201,58.664864 L14.2984201,58.919168 L17.8374841,58.919168 L17.8374841,58.664864 Z" id="Path"></path>
                <path d="M22.1544723,53.557592 C22.1544723,50.8874 23.5107603,49.213232 24.7187043,49.213232 C25.7359203,49.213232 27.1134003,50.46356 27.1134003,53.557592 L22.1544723,53.557592 Z M28.3425363,56.312552 C27.9610803,57.35096 26.4564483,58.135064 25.1849283,58.007912 C23.5107603,57.838376 22.2392403,56.694008 22.1544723,53.833088 L28.9359123,53.833088 C28.9359123,50.505944 27.2405523,48.937736 24.7822803,48.937736 C22.1544723,48.937736 20.1624243,50.972168 20.1624243,54.108584 C20.1624243,56.905928 22.0485123,59.109896 24.6975123,59.109896 C27.1981683,59.109896 28.3637283,57.414536 28.5968403,56.418512 L28.3425363,56.312552 Z" id="Shape"></path>
                <path d="M8.286072,76.405272 C8.286072,79.817184 6.8874,80.8344 5.488728,80.8344 C4.153632,80.8344 3.030456,79.923144 2.903304,78.037056 L2.903304,74.05296 C3.030456,72.590712 3.92052,71.573496 5.340384,71.573496 C7.162896,71.573496 8.286072,73.056936 8.286072,76.405272 Z M10.511232,76.108584 C10.511232,73.184088 8.879448,70.937736 6.060912,70.937736 C4.98012,70.937736 3.560256,71.467536 2.903304,72.590712 L2.903304,70.937736 L0,71.552304 L0,71.806608 C0.868872,71.976144 1.0596,72.209256 1.0596,72.929784 L1.0596,84.64896 C1.0596,85.729752 1.017216,86.02644 0.21192,86.259552 L0.21192,86.535048 L3.772176,86.535048 L3.772176,86.259552 C3.030456,86.068824 2.903304,85.835712 2.903304,84.64896 L2.903304,80.3046 C3.581448,80.813208 4.471512,81.109896 5.552304,81.109896 C8.37084,81.109896 10.511232,79.414536 10.511232,76.108584 Z" id="Shape"></path>
                <path d="M18.7487401,71.001312 C17.9010601,71.107272 16.6931161,71.72184 15.9090121,73.162896 L15.9090121,70.937736 L12.9845161,71.552304 L12.9845161,71.806608 C13.8533881,72.03972 14.0441161,72.336408 14.0441161,73.078128 L14.0441161,78.948312 C14.0441161,80.050296 14.0017321,80.41056 13.1964361,80.643672 L13.1964361,80.919168 L16.7778841,80.919168 L16.7778841,80.643672 C16.0149721,80.452944 15.9090121,80.135064 15.9090121,78.948312 L15.9090121,73.671504 C16.5659641,72.25164 17.9858281,71.743032 17.9222521,72.103296 C17.8586761,72.378792 17.9646361,72.67548 18.1553641,72.908592 C18.6003961,73.4172 19.3209241,73.459584 19.8083401,73.056936 C20.3169481,72.633096 20.3805241,71.912568 19.9566841,71.40396 C19.6599961,71.064888 19.1301961,70.958928 18.7487401,71.001312 Z" id="Path"></path>
                <path d="M27.3465123,75.684744 C27.3465123,75.684744 27.3465123,78.82116 27.3465123,78.842352 C27.1345923,79.35096 26.6047923,80.156256 25.4816163,80.156256 C24.1889043,80.156256 23.8074483,79.096656 23.8074483,78.482088 C23.8074483,77.210568 24.8882403,76.27812 27.3465123,75.684744 Z M30.2074323,80.113872 C29.2326003,80.113872 29.2537923,78.778776 29.2537923,78.778776 L29.2537923,75.176136 C29.2537923,72.654288 28.6180323,70.937736 26.3081043,70.937736 C26.3081043,70.937736 25.2696963,70.87416 24.3584403,71.340384 C23.2140723,71.954952 22.8538083,72.590712 22.7054643,72.908592 C22.5359283,73.20528 22.5783123,73.62912 22.8114243,73.947 C23.1293043,74.392032 23.7438723,74.4768 24.1677123,74.137728 C24.6127443,73.819848 24.6975123,73.184088 24.3796323,72.760248 C24.2100963,72.527136 23.9769843,72.421176 23.7226803,72.378792 C23.5955283,72.3576 23.7226803,71.954952 24.5491683,71.552304 C26.2445283,70.7682 27.3465123,71.997336 27.3465123,74.180112 L27.3465123,75.409248 C23.7226803,76.341696 21.9213603,76.80792 21.9213603,78.92712 C21.9213603,81.1099797 24.3372483,81.1099797 24.3372483,81.1099797 C25.8206883,81.1099797 27.0498243,80.346984 27.3465123,79.329768 C27.4736643,81.15228 29.1478323,81.1099797 29.1478323,81.1099797 C30.2498163,81.1099797 30.9703443,80.3046 31.0974963,79.66884 L30.8431923,79.56288 C30.6948483,80.113872 30.2074323,80.113872 30.2074323,80.113872 Z" id="Shape"></path>
                <path d="M41.7508924,78.206592 C41.3694364,79.075464 40.0555324,80.071488 38.5085164,79.944336 C37.0038844,79.795992 35.4144844,78.630432 35.4144844,75.811896 C35.4144844,71.848992 37.7456044,71.213232 38.5932844,71.213232 C40.0131484,71.213232 40.5853324,71.806608 40.3946044,71.848992 C40.1826844,71.870184 39.9495724,72.03972 39.8012284,72.294024 C39.5257324,72.739056 39.6740764,73.353624 40.1614924,73.62912 C40.6065244,73.904616 41.2422844,73.713888 41.5177804,73.268856 C41.7085084,72.929784 41.6661244,72.527136 41.4965884,72.230448 C41.3058604,71.891376 40.6701004,70.937736 38.5932844,70.937736 C35.3509084,70.937736 33.4436284,73.438392 33.4436284,76.045008 C33.4436284,79.160232 35.6899804,81.109896 38.0634844,81.109896 C40.6701004,81.109896 41.7508924,79.372152 41.9840044,78.312552 L41.7508924,78.206592 Z" id="Path"></path>
                <path d="M50.0731685,79.181424 C49.9036325,79.626456 49.3950245,80.071488 48.7804565,80.071488 C47.7844325,80.071488 47.1698645,79.499304 47.1698645,77.803944 L47.1698645,71.40396 L49.6281365,71.40396 L49.6917125,71.128464 L47.1698645,71.128464 L47.1698645,67.822512 L45.3261605,68.1192 L45.3261605,71.128464 L44.2029845,71.128464 L44.2453685,71.40396 L45.3261605,71.40396 L45.3261605,77.86752 C45.3261605,80.431752 46.2586085,81.109896 47.8056245,81.109896 C49.0347605,81.109896 49.9884005,80.219832 50.2850885,79.287384 L50.0731685,79.181424 Z" id="Path"></path>
                <path d="M54.0934687,69.1788 C54.6868447,69.1788 55.1742607,68.691384 55.1742607,68.098008 C55.1742607,67.48344 54.6868447,67.017216 54.0934687,67.017216 C53.4789007,67.017216 53.0126767,67.48344 53.0126767,68.098008 C53.0126767,68.691384 53.4789007,69.1788 54.0934687,69.1788 Z M56.0855167,80.643672 C55.3226047,80.452944 55.2166447,80.135064 55.2166447,78.948312 L55.2166447,70.937736 L52.3133407,71.552304 L52.3133407,71.806608 C53.2034047,72.03972 53.3729407,72.336408 53.3729407,73.078128 L53.3729407,78.948312 C53.3729407,80.029104 53.3305567,80.41056 52.5252607,80.643672 L52.5252607,80.919168 L56.0855167,80.919168 L56.0855167,80.643672 Z" id="Shape"></path>
                <path d="M67.3110968,78.206592 C66.9296408,79.075464 65.6157368,80.071488 64.0687208,79.944336 C62.5640888,79.795992 60.9746888,78.630432 60.9746888,75.811896 C60.9746888,71.848992 63.3058088,71.213232 64.1534888,71.213232 C65.5733528,71.213232 66.1455368,71.806608 65.9548088,71.848992 C65.7428888,71.870184 65.5097768,72.03972 65.3614328,72.294024 C65.0859368,72.739056 65.2342808,73.353624 65.7216968,73.62912 C66.1667288,73.904616 66.8024888,73.713888 67.0779848,73.268856 C67.2687128,72.929784 67.2263288,72.527136 67.0567928,72.230448 C66.8660648,71.891376 66.2303048,70.937736 64.1534888,70.937736 C60.9111128,70.937736 59.0038328,73.438392 59.0038328,76.045008 C59.0038328,79.160232 61.2501848,81.109896 63.6236888,81.109896 C66.2303048,81.109896 67.3110968,79.372152 67.5442088,78.312552 L67.3110968,78.206592 Z" id="Path"></path>
                <path d="M72.1578849,75.557592 C72.1578849,72.8874 73.5141729,71.213232 74.7221169,71.213232 C75.7393329,71.213232 77.1168129,72.46356 77.1168129,75.557592 L72.1578849,75.557592 Z M78.3459489,78.312552 C77.9644929,79.35096 76.4598609,80.135064 75.1883409,80.007912 C73.5141729,79.838376 72.2426529,78.694008 72.1578849,75.833088 L78.9393249,75.833088 C78.9393249,72.505944 77.2439649,70.937736 74.7856929,70.937736 C72.1578849,70.937736 70.1658369,72.972168 70.1658369,76.108584 C70.1658369,78.905928 72.0519249,81.109896 74.7009249,81.109896 C77.2015809,81.109896 78.3671409,79.414536 78.6002529,78.418512 L78.3459489,78.312552 Z" id="Shape"></path>
            </g>
        </g>
    </g>
</svg>